<?xml version="1.0" standalone="no"?>
<!DOCTYPE svg PUBLIC "-//W3C//DTD SVG 20010904//EN"
 "http://www.w3.org/TR/2001/REC-SVG-20010904/DTD/svg10.dtd">
<svg version="1.0" xmlns="http://www.w3.org/2000/svg"
 width="400.000000pt" height="400.000000pt" viewBox="0 0 400.000000 400.000000"
 preserveAspectRatio="xMidYMid meet">
<metadata>
Created by potrace 1.11, written by Peter Selinger 2001-2013
</metadata>
<g transform="translate(0.000000,400.000000) scale(0.100000,-0.100000)"
fill="#000000" stroke="none">
<path d="M707 2373 c-1 -1 -31 -2 -67 -4 -80 -3 -189 -39 -296 -100 -98 -55
-227 -181 -266 -259 -53 -105 -55 -136 -54 -635 l2 -460 27 -57 c84 -175 270
-329 446 -369 89 -20 169 -24 461 -23 187 0 315 5 349 13 104 22 262 154 358
298 45 66 111 214 144 321 l23 72 80 1 c45 0 108 0 141 -1 l60 -1 24 63 c13
35 31 81 41 103 10 22 30 72 45 110 16 39 34 84 40 100 43 103 46 115 27 116
-9 0 -70 1 -134 1 l-118 0 6 26 c10 48 48 114 77 136 25 18 43 21 158 23 l129
1 0 -31 c0 -18 2 -221 3 -452 l3 -420 26 -72 c73 -199 225 -327 464 -390 87
-22 120 -26 274 -27 96 0 200 3 230 7 244 34 434 159 525 342 13 28 34 84 45
125 19 71 20 103 20 745 l0 671 -260 0 c-226 0 -260 -2 -261 -16 0 -8 -1 -292
-2 -630 l-2 -615 -24 -38 c-42 -69 -144 -99 -287 -86 -145 13 -204 55 -220
156 -4 21 -7 304 -7 630 0 426 -3 593 -11 596 -6 2 -198 3 -426 2 -463 -2
-506 -7 -635 -69 -91 -43 -154 -100 -209 -189 -50 -80 -131 -248 -166 -344
l-23 -63 -199 -2 -200 -3 0 -220 c1 -121 1 -232 1 -246 1 -27 1 -27 87 -27 47
-1 88 -3 91 -5 10 -11 -11 -100 -31 -130 -39 -57 -56 -61 -321 -62 -195 0
-245 3 -270 15 -30 15 -71 78 -81 122 -3 13 -5 159 -6 326 l-1 303 29 42 c50
70 62 72 458 72 l346 0 0 252 -1 253 -57 1 c-202 2 -604 4 -605 2z"/>
</g>
</svg>
