<?xml version="1.0" encoding="utf-8"?>
<!-- Generator: Adobe Illustrator 15.0.0, SVG Export Plug-In . SVG Version: 6.00 Build 0)  -->
<!DOCTYPE svg PUBLIC "-//W3C//DTD SVG 1.1//EN" "http://www.w3.org/Graphics/SVG/1.1/DTD/svg11.dtd">
<svg version="1.1" id="Layer_1" xmlns="http://www.w3.org/2000/svg" xmlns:xlink="http://www.w3.org/1999/xlink" x="0px" y="0px"
	 width="400px" height="400px" viewBox="0 0 400 400" enable-background="new 0 0 400 400" xml:space="preserve">
<title>Artboard 1</title>
<g>
	<title>Artboard 1</title>
	<path fill="#007AEB" d="M29.064,175.597C10.947,187.938,1.89,203.145,1.89,221.229v80.246c0,8.281,4.984,18.11,14.963,29.49
		c5.389,5.201,10.02,9.029,13.889,11.483c6.461,3.699,10.888,5.827,13.278,6.366c5.881,3,21.705,4.506,47.476,4.506
		c7.861,0,18.343-0.313,31.447-0.936c6.945,0,13.049-1.856,18.317-5.59c7.784-5.016,15.42-12.418,22.902-22.192
		c4.807-6.05,9.94-16.709,15.413-31.978c2.165-6.854,3.333-10.32,3.512-10.402h27.783l19.384-48.422c0-0.309-0.1-0.464-0.302-0.464
		h-26.866c2.898-12.523,8.038-18.784,15.419-18.784h22.285v80.248c0,7.554,1.933,15.52,5.8,23.902
		c12.061,23.8,36.84,35.697,74.344,35.697c35.031,0,58.789-11.33,71.283-33.988c3.154-6.212,5.395-13.091,6.716-20.646
		c0.715-3.568,1.068-17.33,1.068-41.283v-37.254l-0.15-55.876h-0.152l-0.156-0.157h-51.745l-0.303,0.309v118.738
		c0,13.042-7.991,19.563-23.97,19.563h-3.815c-10.738,0-18.011-2.179-21.831-6.521c-3.155-2.845-4.727-9.313-4.727-19.404V165.504
		l-0.31-0.309h-75.867c-11.471,0-22.161,2.379-32.057,7.141c-4.223,1.939-8.953,5.562-14.196,10.864
		c-6.434,7.479-13.56,20.875-21.37,40.196c-1.859,5.279-2.926,8.02-3.209,8.229h-39.38l-0.304,0.315v48.885l0.304,0.311h17.862
		v0.781c0,6.798-1.731,11.974-5.193,15.521c-1.802,2.48-5.976,3.727-12.517,3.727H66.154c-1.039,0-2.212-0.268-3.511-0.783
		c-3.562-1.938-6.104-5.045-7.627-9.307c-1.323-1.217-1.983-8.311-1.983-21.268v-2.02l0.15-40.818
		c0.104-1.371,0.356-2.766,0.764-4.194c3.28-6.622,8.978-9.933,17.096-9.933h65.18l0.157-0.151l-0.157-30.58v-19.399l-0.302-0.312
		H62.951C52.594,163.461,41.298,167.863,29.064,175.597"/>
</g>
</svg>
